<?xml version="1.0" standalone="no"?>
<!DOCTYPE svg PUBLIC "-//W3C//DTD SVG 20010904//EN"
 "http://www.w3.org/TR/2001/REC-SVG-20010904/DTD/svg10.dtd">
<svg version="1.0" xmlns="http://www.w3.org/2000/svg"
 width="1024.000000pt" height="1024.000000pt" viewBox="0 0 1024.000000 1024.000000"
 preserveAspectRatio="xMidYMid meet">

<g transform="translate(0.000000,1024.000000) scale(0.100000,-0.100000)"
fill="#000000" stroke="none">
<path d="M2685 9013 c-36 -9 -83 -52 -104 -95 -89 -186 -78 -674 30 -1243 l30
-161 -35 -79 c-82 -179 -110 -314 -111 -530 0 -181 13 -266 60 -404 l23 -68
-206 -13 c-192 -13 -208 -15 -229 -36 -31 -31 -31 -83 0 -112 29 -28 56 -28
307 -2 182 19 196 19 205 4 6 -10 36 -57 69 -106 32 -49 57 -91 55 -93 -2 -1
-79 -39 -171 -84 -173 -83 -198 -104 -198 -161 0 -32 53 -80 87 -80 17 0 112
41 221 95 106 52 196 95 199 95 4 0 23 -15 43 -34 43 -42 177 -138 247 -178
l51 -29 -54 -86 c-30 -47 -54 -89 -54 -92 0 -3 370 -6 823 -7 l822 0 57 -23
c121 -47 207 -131 248 -240 21 -54 33 -136 175 -1161 36 -261 69 -477 72 -480
3 -3 8 1 10 8 10 28 124 161 199 232 77 73 248 197 331 238 86 44 168 33 202
-29 27 -48 3 -73 -210 -214 -363 -241 -497 -380 -518 -541 -28 -203 100 -364
289 -364 54 0 183 31 232 56 18 9 107 69 198 133 268 190 391 272 453 301 l59
26 83 198 c107 252 136 292 255 350 l65 31 267 3 267 3 87 92 c378 396 517
887 402 1417 -11 52 -51 196 -90 320 -101 328 -111 378 -112 550 -1 223 42
345 167 476 76 81 153 126 287 169 100 32 136 52 183 105 47 52 65 87 75 151
11 73 -2 134 -39 189 -95 138 -254 173 -470 100 -172 -57 -288 -128 -422 -259
-176 -171 -291 -387 -348 -651 -19 -88 -23 -136 -23 -300 0 -248 1 -257 149
-755 52 -176 66 -246 72 -377 9 -185 -28 -350 -108 -483 -46 -76 -176 -215
-182 -195 -3 8 -21 67 -42 130 -126 394 -466 802 -910 1092 -98 64 -429 242
-484 259 -9 4 0 23 32 69 24 36 56 89 71 118 14 28 33 52 42 52 8 0 105 -13
216 -30 110 -16 209 -30 220 -30 29 0 68 45 68 78 0 33 -31 70 -63 76 -12 2
-105 11 -205 19 -101 9 -186 17 -188 19 -2 3 10 58 27 124 71 274 44 607 -70
865 l-38 87 28 138 c63 307 99 620 99 866 0 327 -45 454 -172 488 -76 21 -166
-7 -285 -88 -115 -78 -321 -260 -505 -443 l-188 -187 -67 25 c-304 110 -657
114 -968 11 -49 -16 -95 -31 -100 -34 -6 -2 -42 32 -80 77 -133 154 -529 508
-652 582 -86 53 -190 76 -258 60z m944 -1889 c91 -46 137 -147 111 -245 -23
-83 -123 -159 -210 -159 -152 0 -260 173 -192 306 58 113 179 153 291 98z
m1410 0 c150 -75 158 -284 13 -371 -178 -108 -392 87 -301 274 53 110 178 151
288 97z m-598 -560 c18 -9 37 -31 45 -51 24 -56 7 -86 -116 -201 l-110 -103
-82 73 c-169 152 -161 142 -155 195 4 37 12 54 36 75 l31 28 161 0 c126 0 166
-3 190 -16z"/>
<path d="M1430 5330 c-238 -5 -246 -6 -290 -30 -51 -29 -98 -90 -110 -146 -10
-43 -2 -111 75 -629 65 -439 138 -964 180 -1285 49 -380 54 -408 80 -467 28
-63 93 -135 154 -171 l46 -27 1940 -5 c1906 -5 1941 -5 1973 -25 17 -10 32
-24 32 -30 0 -6 -26 -40 -59 -75 l-58 -65 -1936 -5 -1936 -5 -30 -29 c-54 -52
-51 -123 7 -179 64 -61 -79 -57 2009 -57 1520 1 1915 3 1943 14 51 18 743 479
769 512 47 59 39 133 -19 172 -34 24 -38 24 -193 18 -87 -3 -278 -9 -425 -13
-299 -7 -319 -3 -347 60 -13 28 -96 606 -170 1177 -14 107 -37 274 -50 370
-14 96 -40 293 -59 437 -38 287 -50 330 -114 396 -20 21 -59 51 -87 65 l-50
27 -1515 0 c-833 0 -1625 -2 -1760 -5z m1678 -1199 c163 -84 165 -319 3 -403
-129 -68 -273 -12 -326 126 -43 111 22 248 137 290 53 19 134 13 186 -13z"/>
<path d="M7054 3881 c-23 -10 -50 -32 -61 -47 -11 -16 -89 -182 -173 -369
-364 -812 -747 -1659 -855 -1890 -46 -99 -87 -192 -90 -206 -9 -36 29 -122 67
-154 16 -13 45 -29 66 -35 24 -6 433 -10 1206 -10 l1168 0 97 84 c53 47 119
106 148 133 l52 48 97 270 c53 149 140 398 194 555 54 157 191 542 304 857
123 343 206 587 206 608 0 43 -18 80 -57 117 -64 61 3 58 -1215 58 -1064 0
-1115 -1 -1154 -19z m2153 -214 c11 -11 -178 -564 -460 -1347 -123 -344 -247
-688 -274 -765 l-49 -140 -1135 -2 c-624 -2 -1140 1 -1147 5 -10 7 23 86 134
323 80 173 249 535 374 804 537 1159 520 1124 549 1128 52 8 2000 2 2008 -6z"/>
<path d="M7250 3193 c-56 -50 -50 -141 10 -173 27 -14 1344 -14 1371 0 24 13
49 61 49 95 0 38 -24 79 -55 93 -19 9 -195 12 -685 12 l-660 0 -30 -27z"/>
<path d="M7030 2648 c-66 -45 -77 -120 -24 -169 l26 -24 700 0 700 0 24 28
c29 34 33 100 8 136 -34 49 -36 49 -739 50 l-661 2 -34 -23z"/>
<path d="M6764 2076 c-44 -44 -47 -99 -8 -145 l26 -31 540 0 540 0 34 34 c55
55 43 125 -26 161 -25 13 -107 15 -551 15 l-521 0 -34 -34z"/>
</g>
</svg>
