<?xml version="1.0" standalone="no"?>
<!DOCTYPE svg PUBLIC "-//W3C//DTD SVG 20010904//EN"
 "http://www.w3.org/TR/2001/REC-SVG-20010904/DTD/svg10.dtd">
<svg version="1.0" xmlns="http://www.w3.org/2000/svg"
 width="670.000000pt" height="200.000000pt" viewBox="0 0 670.000000 200.000000"
 preserveAspectRatio="xMidYMid meet">

<g transform="translate(0.000000,200.000000) scale(0.100000,-0.100000)"
fill="#000000" stroke="none">
<path d="M1330 999 l0 -140 48 3 47 3 3 64 3 64 45 -66 44 -67 50 0 50 0 0
140 0 140 -50 0 -49 0 -3 -66 -3 -67 -45 67 c-45 66 -45 66 -92 66 l-48 0 0
-141z"/>
<path d="M1701 1009 c-28 -72 -51 -135 -51 -140 0 -5 24 -9 54 -9 45 0 54 3
59 20 4 16 14 20 45 20 32 0 42 -4 47 -20 5 -17 15 -20 62 -20 48 0 54 2 49
18 -4 9 -28 72 -54 140 l-47 122 -57 0 -56 0 -51 -131z m129 -31 c0 -12 -8
-18 -24 -18 -23 0 -23 1 -13 47 l11 46 13 -29 c6 -16 12 -37 13 -46z"/>
<path d="M1936 1103 c8 -21 34 -84 57 -141 l42 -103 48 3 49 3 48 116 c71 174
71 159 8 159 l-54 0 -24 -81 c-12 -44 -26 -77 -30 -72 -4 4 -17 41 -29 81
l-22 72 -54 0 -55 0 16 -37z"/>
<path d="M2270 1000 l0 -140 100 0 100 0 0 35 0 35 -50 0 c-43 0 -50 3 -50 20
0 17 7 20 45 20 43 0 45 1 45 30 0 29 -2 30 -45 30 -38 0 -45 3 -45 20 0 17 7
20 50 20 l50 0 0 35 0 35 -100 0 -100 0 0 -140z"/>
<path d="M2515 1128 c-3 -8 -4 -70 -3 -139 l3 -124 47 -3 47 -3 3 43 3 43 30
-42 c29 -42 31 -43 88 -43 l59 0 -21 28 c-66 86 -63 80 -42 87 48 15 50 112 4
142 -36 24 -210 32 -218 11z m139 -64 c22 -8 20 -31 -3 -44 -32 -16 -41 -12
-41 20 0 30 11 37 44 24z"/>
<path d="M2958 1124 c-38 -20 -58 -63 -58 -124 0 -91 45 -140 130 -140 33 0
48 6 71 29 16 16 29 37 29 45 0 23 -43 20 -65 -4 -10 -11 -30 -20 -45 -20 -41
0 -65 34 -65 90 0 56 24 90 65 90 15 0 35 -9 45 -20 22 -24 65 -27 65 -4 0 8
-13 29 -29 45 -24 23 -38 29 -73 29 -24 -1 -55 -7 -70 -16z"/>
<path d="M3180 1000 l0 -140 90 0 c89 0 90 0 90 25 0 23 -4 24 -62 27 l-63 3
-3 113 c-3 112 -3 112 -27 112 l-25 0 0 -140z"/>
<path d="M3438 1124 c-37 -20 -60 -68 -60 -124 0 -88 49 -140 132 -140 32 0
48 7 78 34 36 34 37 36 37 106 0 70 -1 72 -37 106 -31 28 -45 34 -80 34 -24
-1 -55 -7 -70 -16z m102 -44 c29 -15 44 -73 30 -115 -13 -38 -35 -55 -73 -55
-38 0 -62 35 -62 90 0 74 48 111 105 80z"/>
<path d="M3670 1046 c0 -51 5 -107 11 -125 13 -37 53 -61 103 -61 89 0 116 43
116 184 l0 96 -30 0 -30 0 0 -99 c0 -108 -10 -131 -55 -131 -45 0 -55 23 -55
131 l0 99 -30 0 -30 0 0 -94z"/>
<path d="M3950 1000 l0 -140 60 0 c112 0 170 48 170 140 0 92 -58 140 -170
140 l-60 0 0 -140z m144 69 c22 -17 26 -28 26 -69 0 -41 -4 -52 -26 -69 -15
-12 -40 -21 -55 -21 l-29 0 0 90 0 90 29 0 c15 0 40 -9 55 -21z"/>
<path d="M4290 1001 l0 -141 30 0 c29 0 30 1 30 50 l0 50 40 0 c77 0 120 44
105 108 -11 52 -38 67 -126 71 l-79 3 0 -141z m140 75 c6 -8 10 -25 8 -38 -2
-19 -10 -23 -45 -26 l-43 -3 0 40 c0 40 1 41 34 41 18 0 39 -7 46 -14z"/>
<path d="M4540 1000 l0 -140 90 0 c89 0 90 0 90 25 0 24 -3 25 -60 25 l-60 0
0 115 0 115 -30 0 -30 0 0 -140z"/>
<path d="M4833 1083 c-11 -32 -35 -95 -52 -140 l-30 -83 28 0 c25 0 31 6 41
35 11 34 13 35 61 35 48 0 51 -2 65 -35 11 -27 20 -35 39 -35 14 0 25 3 25 8
0 4 -22 66 -49 137 -46 123 -51 130 -78 133 -27 3 -30 -1 -50 -55z m77 -94 c0
-5 -13 -9 -30 -9 -35 0 -34 -3 -14 46 l16 38 14 -33 c8 -18 14 -37 14 -42z"/>
<path d="M5000 1115 c0 -23 4 -25 45 -25 l45 0 0 -115 0 -115 30 0 30 0 0 115
0 115 45 0 c41 0 45 2 45 25 l0 25 -120 0 -120 0 0 -25z"/>
<path d="M5280 1000 l0 -140 25 0 c24 0 25 3 25 55 l0 55 60 0 c57 0 60 1 60
25 0 24 -3 25 -60 25 l-60 0 0 35 0 35 65 0 c63 0 65 1 65 25 0 25 -1 25 -90
25 l-90 0 0 -140z"/>
<path d="M5535 1107 c-20 -20 -36 -48 -40 -70 -11 -57 3 -107 40 -144 27 -27
41 -33 74 -33 23 0 56 7 72 16 33 17 69 82 69 124 0 42 -36 107 -69 124 -16 9
-49 16 -72 16 -33 0 -47 -6 -74 -33z m134 -43 c44 -56 13 -154 -49 -154 -44 0
-70 34 -70 90 0 83 73 122 119 64z"/>
<path d="M5790 1001 l0 -141 30 0 c30 0 30 0 30 56 0 68 11 68 60 -4 28 -40
41 -51 63 -52 34 0 34 7 -4 60 l-31 43 26 21 c40 31 45 84 13 122 -23 27 -31
29 -106 32 l-81 4 0 -141z m134 83 c19 -7 21 -45 4 -62 -7 -7 -27 -12 -45 -12
-32 0 -33 1 -33 40 0 38 2 40 29 40 16 0 36 -3 45 -6z"/>
<path d="M6050 1000 l0 -140 25 0 c25 0 25 1 26 88 0 83 1 86 15 57 7 -16 23
-56 35 -87 15 -42 25 -58 39 -58 14 0 24 16 39 58 12 31 28 71 35 87 14 29 15
26 15 -57 1 -87 1 -88 26 -88 l25 0 0 140 0 140 -34 0 c-34 0 -34 0 -67 -94
-19 -52 -36 -93 -40 -90 -4 2 -21 44 -39 94 -32 89 -33 90 -66 90 l-34 0 0
-140z"/>
</g>
</svg>
